<svg viewBox="0 0 212.3 80.9" id="brand--wordmark" xmlns="http://www.w3.org/2000/svg"><path fill="currentColor" d="M13.2 66.4h7.9c.2 0 .4-.2.6-.6.6-3.4 1.2-6.4 1.5-9 .1-.3.3-.5.6-.5h2.5c.4 0 .7.2.7.4.2 1.5.5 3.3 1 5.4.6 2.8 1.1 4.2 1.5 4.2 1.2 0 2.6 0 4.2.1H37c.4 0 .6-.1.6-.4-1.3-8.9-2.7-17.8-4-26.6C31 22.5 29.4 14.1 28.9 14c-2.3-.1-4.6-.1-6.9 0-.6 0-2.3 8.5-5.1 25.4-1.5 8.8-2.9 17.5-4.4 26.3-.3.5 0 .7.7.7zm10.6-18.1c.2-1.4.3-2.8.5-4.2.3-2.1.6-3.1.8-3.1.2 0 .6 2.4 1.2 7.3 0 .2-.2.3-.6.3h-1.2c-.5-.1-.7-.2-.7-.3zm24.7 18.1c3.6 0 6.3-1.4 8.2-4.3 1.7-2.5 2.5-5.7 2.5-9.7v-4.9c0-.7-.3-1.1-1-1.1-1.6 0-3.7-.1-6.4-.1-.6 0-.9.4-.9 1.2 0 .1 0 .6.1 1.3v1.8c0 4.5-.8 6.7-2.5 6.7-.9 0-1.6-.7-2.1-2.2-.3-1.1-.5-2.2-.5-3.4V33.5c0-7.6.9-11.4 2.6-11.4 1.3 0 2.1 1.1 2.4 3.3v4.5c0 .6.4 1.1 1 1.1h.2c-.2 0 .7 0 2.9.1 1.1.1 2.1 0 3.2-.1.6-.1 1-.6 1-1.2 0-.7.1-1.7.1-2.9.1-3.9-.6-7.1-2-9.4-1.8-3.1-4.7-4.6-8.7-4.6-3.8 0-6.6 1.7-8.5 5.2-1.2 2.1-1.8 4.4-1.9 6.8v24.7c0 5.1.6 8.9 1.7 11.3 1.5 3.8 4.4 5.5 8.6 5.5zm14-.2c5.4.4 10.8.4 16.1.1.7 0 1-.3 1-.8 0-1.7-.1-4.3-.1-7.8 0-.6-.3-.8-1-.8h-7c-.8-.1-1.2-.4-1.2-1-.1-4.9-.1-8.3.1-10.1.1-.6.3-1 .8-1H77c.5 0 .7-.3.7-.9 0-.4 0-1.9.1-4.3.1-2.1.1-3.5.1-4.3 0-.4-.3-.8-.8-.8H77c-2 .1-3.9.1-5.9-.1-.4 0-.8-.4-.8-.8v-5.4c0-2.8.1-4.3.1-4.5 0-.5.3-.7 1-.7h7.3c.5 0 .7-.3.7-.8s0-1.8.1-3.8v-3.5c0-.5-.3-.8-1-.8-7.3-.1-12.7-.1-15.9-.1-.3-.1-.7.2-.7.5v50.2c-.1 1 .1 1.4.6 1.5zm32.4-.1c1.8.2 3.6.1 5.4-.1 1.1-.1 1.7-.6 1.7-1.3.2-8 .2-14.6.2-19.9 0-.6.2-1 .6-1 1.2-.1 2.3-.1 3.5 0 .5.1.8.5.8 1l-.1 19.7c0 1.1.3 1.6.8 1.6h2.6c1 .1 2 0 3-.2.8-.1 1.2-.5 1.2-1.2 0-1.2.1-8.8.2-22.8.1-13.2.1-22 .1-26.5 0-.8-.2-1.2-.6-1.2-2.8 0-5.1 0-6.9.1-.3 0-.4.2-.4.8v17.6c0 .7-.2 1.1-.7 1.1-1.1.3-2.3.3-3.5.1-.2 0-.4-.2-.4-.4-.1-.3-.1-.5-.1-.8-.1-2.3-.1-5.4 0-9.5v-7.9c.1-.5-.3-1-.8-1.1h-7.2c-.4 0-.6.4-.6 1.1-.3 22.2-.3 38.6.1 49.3.1 1 .5 1.5 1.1 1.5zm32.7.7c6.8 0 10.2-3.6 10.2-10.8V25.6c0-4.5-1-7.7-2.9-9.5-1.5-1.4-4-2.1-7.3-2.1-3.1 0-5.4.8-7 2.4-1.9 2-2.8 5.3-2.8 9.9V56c0 3.7.7 6.4 2.2 8.1 1.6 1.8 4.1 2.7 7.6 2.7zM126 27.3c0-2.6.7-3.8 2-3.8 1.2 0 1.8 1.3 1.8 3.8v25.9c0 2.2-.6 3.3-1.8 3.3-.6.1-1.1-.1-1.5-.5-.3-.4-.4-1.2-.4-2.7v-26h-.1zm12.2-5.5c0 .6.3.9 1 .9h4.7c.5 0 .8.3.8.9l.1 41.4c0 .7.3 1 .8 1.1 3.3.3 5.8.3 7.3.1.5 0 .7-.4.7-1.1l-.1-41.4c0-.6.4-1 1.3-1h2.3c1 0 1.6.1 1.9.1.7 0 1.1-.3 1.1-.9 0-1.8 0-3.9-.1-6.6 0-.8-.4-1.2-1-1.2h-19.8c-.6 0-1 .6-1.2 1.7-.2 1.1-.2 2.3-.1 3.4.3 2.2.3 3.1.3 2.6zm23.5 44.4c5.4.4 10.8.4 16.1.1.7 0 1-.3 1-.8 0-1.7-.1-4.3-.1-7.8 0-.6-.3-.8-1-.8h-7c-.8-.1-1.2-.4-1.2-1-.1-4.9-.1-8.3.1-10.1.1-.6.3-1 .8-1h5.8c.5 0 .7-.3.7-.9 0-.4 0-1.9.1-4.3.1-2.1.1-3.5.1-4.3 0-.4-.3-.8-.8-.8h-.1c-2 .1-3.9.1-5.9-.1-.4 0-.8-.4-.8-.8v-5.4c0-2.8.1-4.3.1-4.5 0-.5.3-.7 1-.7h7.3c.5 0 .7-.3.7-.8s0-1.8.1-3.8v-3.5c0-.5-.3-.8-1-.8-7.3-.1-12.7-.1-15.9-.1-.3-.1-.7.2-.7.5v50.2c-.1 1 .1 1.4.6 1.5zm20.5-.2c2.5.2 5 .2 7.5.1 5.9-.1 8.7-.1 8.5-.1 1.1 0 1.6-.4 1.7-1.2v-7.1c0-.8-.5-1.2-1.5-1.2h-6.7c-.9 0-1.4-.6-1.5-1.5-.1-4.1-.1-11.4-.1-21.9.1-9.7.1-15.5-.1-17.3 0-.4 0-.8.1-1.2-.1-.5-.4-.7-1-.6-3.7.1-6 .1-6.9 0-.8-.1-1.2.4-1.2 1.6-.1 10.9 0 27.2.2 48.9 0 .9.4 1.4 1 1.5z"></path><path fill="currentColor" d="M0 0v80.9h212.3V0H0zm204.8 73.2H7.4V7.6h197.4v65.6z"></path></svg>