<svg width="177" height="56" viewBox="0 0 177 56" fill="none" xmlns="http://www.w3.org/2000/svg">
<path d="M28.0741 31.8981C28.0768 31.8924 28.0726 31.8859 28.0664 31.8859H23.1834C22.0788 31.8859 21.1834 30.9904 21.1834 29.8859V21.1984C21.1834 20.0938 22.0788 19.1984 23.1834 19.1984H27.8938C32.2318 19.1984 34.9532 21.3985 34.9532 25.4932V25.6155C34.9532 29.1686 32.4116 31.9046 28.082 31.9103C28.0757 31.9103 28.0714 31.9038 28.0741 31.8981V31.8981ZM51.4501 10.3856C51.4341 10.3856 51.4211 10.3986 51.4211 10.4146V45.2212C51.418 47.8557 50.4209 50.3815 48.6484 52.2444C46.8759 54.1073 44.4727 55.1553 41.966 55.1585H23.1834C22.0788 55.1585 21.1834 54.2631 21.1834 53.1585V42.0264C21.1834 40.9218 22.0788 40.0264 23.1834 40.0264H27.8008C36.6628 40.0264 43.7686 35.0394 43.7686 25.4688V25.3588C43.7686 16.8393 38.07 10.9356 28.6498 10.9356H14.5423C13.4378 10.9356 12.5423 11.831 12.5423 12.9356V53.1585C12.5423 54.2631 11.6469 55.1585 10.5423 55.1585H9.62323C7.11653 55.1553 4.71337 54.1073 2.94086 52.2444C1.16835 50.3815 0.171199 47.8557 0.168121 45.2212V10.3856C0.174249 7.75089 1.17201 5.22577 2.94353 3.36162C4.71505 1.49746 7.1164 0.445714 9.62323 0.436035H42.0241C44.531 0.445714 46.9323 1.49746 48.7038 3.36162C50.4688 5.2189 51.4658 7.73228 51.4791 10.3564C51.4792 10.3725 51.4662 10.3856 51.4501 10.3856V10.3856ZM61.3996 10.9066C61.3996 9.80202 62.295 8.90659 63.3996 8.90659H68.3775C72.4131 8.90659 74.9019 11.4368 74.9019 15.0914C74.9019 19.2228 71.8316 21.3741 68.017 21.3741H67.1444C66.0398 21.3741 65.1444 22.2695 65.1444 23.3741V24.8187C65.1444 25.8528 64.3061 26.6911 63.272 26.6911V26.6911C62.2379 26.6911 61.3996 25.8528 61.3996 24.8187V10.9066ZM68.11 17.9272C68.4751 17.9694 68.8445 17.9314 69.1948 17.8157C69.5451 17.6999 69.8688 17.509 70.1452 17.2549C70.424 17.0014 70.6503 16.6906 70.8103 16.3417C70.9704 15.9927 71.0606 15.613 71.0756 15.2259C71.0756 13.4536 69.9126 12.5124 68.0286 12.5124H67.1444C66.0398 12.5124 65.1444 13.4078 65.1444 14.5124V15.9467C65.1444 17.0674 66.0651 17.9693 67.1856 17.9462L68.11 17.9272ZM77.6698 10.9188C77.6698 9.81425 78.5652 8.91881 79.6698 8.91881H85.4386C86.3383 8.85753 87.2406 8.98482 88.0932 9.29328C88.9457 9.60174 89.7314 10.0852 90.4045 10.7156C90.8973 11.2602 91.2809 11.9033 91.5326 12.6067C91.7843 13.3101 91.899 14.0594 91.8699 14.8103C91.9106 16.0252 91.5772 17.2214 90.9193 18.2212C90.7425 18.4898 90.5448 18.7405 90.3289 18.9709C89.4416 19.918 88.9065 21.4065 89.6196 22.4908L90.5083 23.8423C91.3123 25.0649 90.4353 26.6911 88.9721 26.6911V26.6911C88.3432 26.6911 87.7579 26.3696 87.4205 25.8388L84.9188 21.9034C84.5689 21.353 83.9619 21.0196 83.3097 21.0196V21.0196C82.2567 21.0196 81.403 21.8733 81.403 22.9263V24.8245C81.403 25.8554 80.5673 26.6911 79.5364 26.6911V26.6911C78.5055 26.6911 77.6698 25.8554 77.6698 24.8245V10.9188ZM85.206 17.5849C87.0319 17.5849 88.0785 16.5704 88.0785 15.067C88.0785 13.5636 86.9156 12.5124 85.1362 12.5124H83.403C82.2984 12.5124 81.403 13.4078 81.403 14.5124V15.6137C81.403 16.7308 82.3181 17.6313 83.4351 17.6134L85.206 17.5849ZM95.2775 10.9066C95.2775 9.80202 96.1729 8.90659 97.2775 8.90659H106.316C107.285 8.90659 108.07 9.69189 108.07 10.6606V10.6606C108.07 11.6293 107.285 12.4146 106.316 12.4146H100.832C99.8199 12.4146 98.999 13.2355 98.999 14.2481V14.2481C98.999 15.2606 99.8199 16.0815 100.832 16.0815H105.27C106.238 16.0815 107.024 16.8668 107.024 17.8355V17.8355C107.024 18.8042 106.238 19.5895 105.27 19.5895H100.875C99.839 19.5895 98.999 20.4295 98.999 21.4658V21.4658C98.999 22.502 99.839 23.342 100.875 23.342H106.549C107.518 23.342 108.303 24.1273 108.303 25.096V25.096C108.303 26.0647 107.518 26.85 106.549 26.85H97.2775C96.1729 26.85 95.2775 25.9546 95.2775 24.85V10.9066ZM111.563 10.9105C111.561 9.8044 112.457 8.90659 113.563 8.90659H114.5C115.207 8.90659 115.862 9.28055 116.222 9.88997L118.387 13.5584C119.161 14.8688 121.056 14.8698 121.831 13.5604L124.004 9.88801C124.364 9.2797 125.018 8.90659 125.725 8.90659H126.667C127.771 8.90659 128.667 9.80202 128.667 10.9066V24.9461C128.667 25.9706 127.836 26.8011 126.812 26.8011V26.8011C125.787 26.8011 124.957 25.9706 124.957 24.9461V22.0686C124.957 20.0609 122.329 19.3051 121.263 21.0059L120.19 22.7159C120.175 22.7404 120.148 22.7553 120.119 22.7553V22.7553C120.09 22.7553 120.063 22.7404 120.048 22.7159L119.022 21.08C117.955 19.3791 115.327 20.1348 115.327 22.1426V24.9327C115.327 25.9646 114.491 26.8011 113.459 26.8011V26.8011C112.429 26.8011 111.593 25.9668 111.591 24.9363L111.563 10.9105ZM132.877 10.779C132.877 9.7449 133.715 8.90659 134.749 8.90659V8.90659C135.783 8.90659 136.622 9.7449 136.622 10.779V24.9165C136.622 25.9506 135.783 26.7889 134.749 26.7889V26.7889C133.715 26.7889 132.877 25.9506 132.877 24.9165V10.779ZM140.634 19.125V10.7732C140.634 9.7423 141.47 8.90659 142.501 8.90659V8.90659C143.532 8.90659 144.367 9.7423 144.367 10.7732V19.0273C144.367 21.9363 145.716 23.4398 148.054 23.4398C150.392 23.4398 151.717 22.0341 151.717 19.2106V10.8279C151.717 9.79379 152.556 8.95548 153.59 8.95548V8.95548C154.624 8.95548 155.462 9.79379 155.462 10.8279V19.0517C155.462 24.4665 152.566 27.1433 147.996 27.1433C143.425 27.1433 140.634 24.4421 140.634 19.1862V19.125ZM159.314 10.9092C159.313 9.80361 160.209 8.90659 161.314 8.90659H162.207C162.914 8.90659 163.568 9.2797 163.928 9.88801L166.104 13.5642C166.878 14.8728 168.772 14.8728 169.546 13.5642L171.722 9.88801C172.082 9.2797 172.736 8.90659 173.443 8.90659H174.35C175.454 8.90659 176.35 9.80202 176.35 10.9066V24.9403C176.35 25.968 175.516 26.8011 174.489 26.8011V26.8011C173.461 26.8011 172.628 25.968 172.628 24.9403V22.083C172.628 20.0741 169.998 19.3191 168.932 21.0221L167.876 22.7109C167.859 22.7385 167.828 22.7553 167.796 22.7553V22.7553C167.763 22.7553 167.733 22.7385 167.716 22.7109L166.706 21.0963C165.64 19.3932 163.01 20.1482 163.01 22.1571V24.9624C163.01 25.9779 162.187 26.8011 161.171 26.8011V26.8011C160.157 26.8011 159.334 25.9793 159.333 24.9648L159.314 10.9092ZM61.3686 32.912C61.3664 31.8059 62.2625 30.908 63.3686 30.908H68.3426C72.3782 30.908 74.867 33.4382 74.867 37.0929C74.867 41.2243 71.7967 43.3633 67.9821 43.3633H67.1444C66.0398 43.3633 65.1444 44.2587 65.1444 45.3633V46.8183C65.1444 47.8534 64.3053 48.6925 63.2701 48.6925V48.6925C62.2365 48.6925 61.3979 47.8556 61.3959 46.822L61.3686 32.912ZM68.0751 39.9286C68.4413 39.9655 68.8109 39.9236 69.1612 39.8055C69.5115 39.6874 69.8353 39.4955 70.1127 39.2416C70.3902 38.9878 70.6156 38.6771 70.7751 38.3287C70.9347 37.9803 71.0251 37.6014 71.0407 37.2151C71.0407 35.455 69.8778 34.5138 67.9937 34.5138H67.1444C66.0398 34.5138 65.1444 35.4093 65.1444 36.5138V37.9439C65.1444 39.0615 66.0603 39.9622 67.1777 39.9436L68.0751 39.9286ZM81.8164 32.0121C82.1218 31.2562 82.8555 30.7614 83.6707 30.7614H84.465C85.2786 30.7614 86.0112 31.2543 86.3177 32.008L92.0929 46.2095C92.5752 47.3956 91.7025 48.6925 90.4221 48.6925V48.6925C89.6758 48.6925 89.0066 48.2329 88.7387 47.5364L88.1297 45.9532C87.8326 45.1808 87.0906 44.6712 86.263 44.6712H81.8076C80.9819 44.6712 80.2411 45.1786 79.9427 45.9485L79.3135 47.572C79.0518 48.2474 78.4019 48.6925 77.6776 48.6925V48.6925C76.4337 48.6925 75.5848 47.434 76.0509 46.2807L81.8164 32.0121ZM84.0002 41.2976C85.0888 41.2976 85.8366 40.2027 85.4405 39.1887V39.1887C84.9277 37.8758 83.0693 37.8774 82.5588 39.1912V39.1912C82.1649 40.2048 82.9127 41.2976 84.0002 41.2976V41.2976ZM96.2932 32.912C96.291 31.8059 97.1871 30.908 98.2932 30.908H104.058C104.959 30.8456 105.862 30.9736 106.715 31.2843C107.568 31.595 108.353 32.0822 109.024 32.717C109.515 33.2628 109.898 33.9061 110.149 34.6092C110.401 35.3123 110.517 36.0611 110.489 36.8118C110.531 38.0254 110.198 39.2207 109.54 40.2188C109.367 40.4815 109.173 40.7269 108.962 40.9528C108.073 41.9053 107.535 43.4031 108.254 44.4896L109.172 45.8763C109.971 47.0826 109.105 48.6925 107.659 48.6925V48.6925C107.039 48.6925 106.461 48.3759 106.128 47.8528L103.571 43.8391C103.223 43.2915 102.618 42.9599 101.969 42.9599V42.9599C100.92 42.9599 100.069 43.8106 100.069 44.8599V46.8183C100.069 47.8534 99.2299 48.6925 98.1947 48.6925V48.6925C97.161 48.6925 96.3225 47.8556 96.3205 46.822L96.2932 32.912ZM103.825 39.5864C105.64 39.5864 106.686 38.5719 106.686 37.0562C106.686 35.5406 105.582 34.5138 103.756 34.5138H102.034C100.93 34.5138 100.034 35.4093 100.034 36.5138V37.615C100.034 38.7322 100.949 39.6327 102.066 39.6147L103.825 39.5864ZM114.47 32.752C114.468 31.7207 115.304 30.8836 116.335 30.8836V30.8836C117.365 30.8836 118.2 31.7185 118.2 32.7484V33.4413C118.2 35.2809 120.474 36.1448 121.696 34.7692L124.682 31.4056C124.997 31.0503 125.45 30.8469 125.925 30.8469V30.8469C127.369 30.8469 128.127 32.562 127.154 33.6294L123.851 37.2519C123.22 37.9446 123.154 38.9829 123.693 39.7497L127.951 45.8052C128.805 47.0198 127.936 48.6925 126.452 48.6925V48.6925C125.85 48.6925 125.288 48.3979 124.945 47.904L121.509 42.9481C120.845 41.9901 119.463 41.897 118.676 42.7573V42.7573C118.37 43.0921 118.2 43.5293 118.2 43.983V46.8416C118.2 47.8638 117.371 48.6925 116.349 48.6925V48.6925C115.328 48.6925 114.5 47.866 114.498 46.8452L114.47 32.752ZM132.98 32.8075C132.974 31.7466 133.833 30.8836 134.894 30.8836V30.8836C135.951 30.8836 136.808 31.7405 136.808 32.7975V46.8152C136.808 47.852 135.967 48.6925 134.931 48.6925V48.6925C133.898 48.6925 133.059 47.858 133.053 46.825L132.98 32.8075ZM141.555 32.8862C141.554 31.7806 142.45 30.8836 143.555 30.8836H144.021C144.662 30.8836 145.265 31.1911 145.641 31.7105L149.388 36.8857C150.526 38.4562 153.008 37.6517 153.008 35.7127V32.7327C153.008 31.7115 153.836 30.8836 154.857 30.8836V30.8836C155.879 30.8836 156.707 31.7115 156.707 32.7328V46.6925C156.707 47.7971 155.811 48.6925 154.707 48.6925H154.541C153.9 48.6925 153.297 48.3851 152.921 47.8658L148.906 42.3223C147.768 40.7521 145.286 41.5567 145.286 43.4956V46.8364C145.286 47.8615 144.455 48.6925 143.43 48.6925V48.6925C142.406 48.6925 141.575 47.863 141.574 46.8388L141.555 32.8862ZM160.591 39.8797C160.581 38.6504 160.807 37.4316 161.254 36.2956C161.701 35.1596 162.361 34.1295 163.194 33.2665C164.027 32.4035 165.016 31.7252 166.103 31.2718C167.191 30.8183 168.353 30.599 169.523 30.6269C171.424 30.511 173.3 31.0116 174.904 32.0395C175.708 32.5541 175.785 33.6487 175.2 34.402V34.402C174.516 35.2829 173.209 35.3276 172.206 34.8403C172.092 34.7852 171.977 34.7336 171.86 34.6857C171.098 34.373 170.283 34.2232 169.465 34.2449C168.791 34.2747 168.129 34.4444 167.518 34.7443C166.907 35.0443 166.359 35.4684 165.905 35.9923C165.451 36.5162 165.1 37.1295 164.872 37.7967C164.645 38.464 164.546 39.1719 164.58 39.8797C164.542 40.6123 164.647 41.3452 164.89 42.0332C165.132 42.7211 165.506 43.3493 165.99 43.8789C166.473 44.4084 167.054 44.8279 167.698 45.1114C168.342 45.3949 169.034 45.5363 169.732 45.5268C170.683 45.5486 171.622 45.3328 172.472 44.9026C172.962 44.6547 173.221 44.1248 173.221 43.5758V43.5758C173.221 42.6416 172.464 41.8843 171.53 41.8843H171.135C170.193 41.8843 169.43 41.1209 169.43 40.1792V40.1792C169.43 39.2375 170.193 38.4741 171.135 38.4741H174.815C175.919 38.4741 176.815 39.3695 176.815 40.4741V45.3637C176.815 45.9269 176.583 46.4718 176.138 46.8165C174.235 48.2895 171.924 49.0851 169.546 49.0715C168.371 49.1325 167.198 48.9379 166.098 48.4997C164.998 48.0615 163.997 47.3892 163.156 46.5251C162.315 45.6609 161.653 44.6235 161.212 43.4778C160.77 42.3322 160.559 41.1031 160.591 39.8675V39.8797Z" fill="black" fill-opacity="0.87"/>
</svg>
